<mxfile host="app.diagrams.net" modified="2024-06-25T08:36:51.439Z" agent="Mozilla/5.0 (Macintosh; Intel Mac OS X 10_15_7) AppleWebKit/537.36 (KHTML, like Gecko) Chrome/126.0.0.0 Safari/537.36" etag="GrsV-ZAZdclv5T3DvkCz" version="24.6.2" type="device">
  <diagram name="Page-1" id="Ecq2gNHjC7UUKUKKjy5T">
    <mxGraphModel dx="956" dy="614" grid="1" gridSize="10" guides="1" tooltips="1" connect="1" arrows="1" fold="1" page="1" pageScale="1" pageWidth="827" pageHeight="1169" math="0" shadow="0">
      <root>
        <mxCell id="0" />
        <mxCell id="1" parent="0" />
        <mxCell id="xIsOaQqm_g8w1K5dU-5W-1" value="Object" style="html=1;whiteSpace=wrap;" vertex="1" parent="1">
          <mxGeometry x="320" y="150" width="110" height="50" as="geometry" />
        </mxCell>
        <mxCell id="xIsOaQqm_g8w1K5dU-5W-10" style="edgeStyle=orthogonalEdgeStyle;rounded=0;orthogonalLoop=1;jettySize=auto;html=1;entryX=0.5;entryY=1;entryDx=0;entryDy=0;" edge="1" parent="1" source="xIsOaQqm_g8w1K5dU-5W-2" target="xIsOaQqm_g8w1K5dU-5W-1">
          <mxGeometry relative="1" as="geometry" />
        </mxCell>
        <mxCell id="xIsOaQqm_g8w1K5dU-5W-2" value="Component" style="html=1;whiteSpace=wrap;" vertex="1" parent="1">
          <mxGeometry x="320" y="230" width="110" height="50" as="geometry" />
        </mxCell>
        <mxCell id="xIsOaQqm_g8w1K5dU-5W-9" style="edgeStyle=orthogonalEdgeStyle;rounded=0;orthogonalLoop=1;jettySize=auto;html=1;entryX=0;entryY=0.5;entryDx=0;entryDy=0;exitX=0.5;exitY=0;exitDx=0;exitDy=0;" edge="1" parent="1" source="xIsOaQqm_g8w1K5dU-5W-4" target="xIsOaQqm_g8w1K5dU-5W-2">
          <mxGeometry relative="1" as="geometry" />
        </mxCell>
        <mxCell id="xIsOaQqm_g8w1K5dU-5W-4" value="Form" style="html=1;whiteSpace=wrap;" vertex="1" parent="1">
          <mxGeometry x="140" y="350" width="110" height="50" as="geometry" />
        </mxCell>
        <mxCell id="xIsOaQqm_g8w1K5dU-5W-11" style="edgeStyle=orthogonalEdgeStyle;rounded=0;orthogonalLoop=1;jettySize=auto;html=1;exitX=0.5;exitY=0;exitDx=0;exitDy=0;entryX=0.25;entryY=1;entryDx=0;entryDy=0;" edge="1" parent="1" source="xIsOaQqm_g8w1K5dU-5W-5" target="xIsOaQqm_g8w1K5dU-5W-2">
          <mxGeometry relative="1" as="geometry" />
        </mxCell>
        <mxCell id="xIsOaQqm_g8w1K5dU-5W-5" value="Link" style="html=1;whiteSpace=wrap;" vertex="1" parent="1">
          <mxGeometry x="260" y="350" width="110" height="50" as="geometry" />
        </mxCell>
        <mxCell id="xIsOaQqm_g8w1K5dU-5W-12" style="edgeStyle=orthogonalEdgeStyle;rounded=0;orthogonalLoop=1;jettySize=auto;html=1;exitX=0.25;exitY=0;exitDx=0;exitDy=0;entryX=0.5;entryY=1;entryDx=0;entryDy=0;" edge="1" parent="1" source="xIsOaQqm_g8w1K5dU-5W-6" target="xIsOaQqm_g8w1K5dU-5W-2">
          <mxGeometry relative="1" as="geometry" />
        </mxCell>
        <mxCell id="xIsOaQqm_g8w1K5dU-5W-6" value="Paragraph" style="html=1;whiteSpace=wrap;" vertex="1" parent="1">
          <mxGeometry x="380" y="350" width="110" height="50" as="geometry" />
        </mxCell>
        <mxCell id="xIsOaQqm_g8w1K5dU-5W-13" style="edgeStyle=orthogonalEdgeStyle;rounded=0;orthogonalLoop=1;jettySize=auto;html=1;exitX=0.25;exitY=0;exitDx=0;exitDy=0;entryX=1;entryY=0.5;entryDx=0;entryDy=0;" edge="1" parent="1" source="xIsOaQqm_g8w1K5dU-5W-7" target="xIsOaQqm_g8w1K5dU-5W-2">
          <mxGeometry relative="1" as="geometry" />
        </mxCell>
        <mxCell id="xIsOaQqm_g8w1K5dU-5W-7" value="Button" style="html=1;whiteSpace=wrap;" vertex="1" parent="1">
          <mxGeometry x="500" y="350" width="110" height="50" as="geometry" />
        </mxCell>
      </root>
    </mxGraphModel>
  </diagram>
</mxfile>